<svg width="22" height="22" viewBox="0 0 22 22" fill="none" xmlns="http://www.w3.org/2000/svg">
<g clip-path="url(#clip0_70_15)">
<path d="M15.6887 3.65062H15.5787V2.87374C15.5787 2.30999 15.1181 1.84937 14.5543 1.84937C13.9906 1.84937 13.53 2.30999 13.53 2.87374V3.65062H8.47684V2.87374C8.47684 2.30999 8.01621 1.84937 7.45246 1.84937C6.88871 1.84937 6.42809 2.30999 6.42809 2.87374V3.65062H6.31809C4.35184 3.65062 2.75684 5.24562 2.75684 7.21186V16.5894C2.75684 18.5556 4.35184 20.1506 6.31809 20.1506H15.6956C17.6618 20.1506 19.2568 18.5556 19.2568 16.5894V7.21186C19.2568 5.24562 17.6618 3.65062 15.6956 3.65062H15.6887ZM17.545 16.2525C17.545 17.4625 16.5687 18.4387 15.3587 18.4387H6.66871C5.45871 18.4387 4.48246 17.4625 4.48246 16.2525V10.9519H17.5381V16.2525H17.545ZM17.545 9.22624H4.47559V7.56249C4.47559 6.43499 5.32809 5.52062 6.42121 5.39687V6.32499C6.42121 6.88874 6.88184 7.34936 7.44559 7.34936C8.00934 7.34936 8.46996 6.88874 8.46996 6.32499V5.36937H13.5231V6.32499C13.5231 6.88874 13.9837 7.34936 14.5475 7.34936C15.1112 7.34936 15.5718 6.88874 15.5718 6.32499V5.39687C16.6718 5.50687 17.5381 6.42811 17.5381 7.56249V9.22624H17.545Z" fill="black"/>
<path d="M11.9007 16.7131C12.1688 16.9812 12.6088 16.9812 12.87 16.7131L15.785 13.7981C16.0532 13.53 16.0532 13.09 15.785 12.8287C15.5169 12.5675 15.0769 12.5606 14.8157 12.8287L12.3819 15.2625L11.4125 14.2931C11.1444 14.025 10.7044 14.025 10.4432 14.2931C10.1819 14.5612 10.175 15.0012 10.4432 15.2625L11.9007 16.72V16.7131Z" fill="black"/>
</g>
<defs>
<clipPath id="clip0_70_15">
<rect width="22" height="22" fill="white"/>
</clipPath>
</defs>
</svg>
