<svg width="148" height="148" viewBox="0 0 148 148" fill="none" xmlns="http://www.w3.org/2000/svg">
<path d="M103.979 47.1918C103.102 47.1918 102.38 46.4745 102.38 45.6036V38.2003C102.38 37.0987 101.477 36.2021 100.368 36.2021C99.2585 36.2021 98.3557 37.0987 98.3557 38.2003V39.8654C98.3557 40.762 97.6335 41.4536 96.7565 41.4536C95.8795 41.4536 95.1572 40.7363 95.1572 39.8654V38.2003C95.1572 35.3311 97.5045 33 100.393 33C103.282 33 105.63 35.3311 105.63 38.2003V45.6036C105.63 46.5002 104.907 47.1918 104.03 47.1918H103.979Z" fill="#00A0DF"/>
<path d="M45.8386 82.1333C45.3228 81.4673 44.5489 81.1086 43.7751 81.1086C43.2334 81.1086 42.6917 81.288 42.2274 81.621L33.509 88.1789C32.9415 88.6144 32.8383 89.4085 33.251 89.9721L51.8745 114.513C52.1324 114.846 52.5194 115.026 52.9063 115.026C53.1642 115.026 53.4479 114.949 53.6801 114.769L62.3986 108.237C63.5335 107.392 63.7657 105.778 62.9144 104.651L45.8386 82.1589V82.1333ZM53.2932 111.029L36.9912 89.5622L43.6461 84.5669L59.9481 106.034L53.2932 111.029Z" fill="#00A0DF"/>
<path d="M72.2003 72.5014C73.0773 72.5014 73.7996 71.7841 73.7996 70.9131V67.711C73.7996 67.173 74.2381 66.7375 74.7797 66.7375H85.7423C86.284 66.7375 86.7225 67.173 86.7225 67.711V75.1911C86.7225 76.0877 87.4447 76.7794 88.3217 76.7794C89.1987 76.7794 89.921 76.0621 89.921 75.1911V67.711C89.921 65.4055 88.038 63.561 85.7423 63.561H74.7797C72.4583 63.561 70.6011 65.4311 70.6011 67.711V70.9131C70.6011 71.8097 71.3233 72.5014 72.2003 72.5014Z" fill="#00A0DF"/>
<path d="M114.916 82.8762C114.658 81.5954 113.755 80.5707 112.517 80.1352L110.298 79.3667C108.39 78.675 106.3 78.7775 104.443 79.5972L102.999 80.2377C98.2783 82.8762 93.4548 84.2339 90.6432 84.8743C90.6432 84.6438 90.7206 84.4132 90.7206 84.1827C90.7206 80.6988 87.8574 77.8553 84.3494 77.8553H77.6945C76.4048 77.8553 75.1151 77.4198 74.0833 76.6513L70.5237 73.9871C66.2934 70.8106 59.8965 71.0412 55.9241 74.5507L49.1402 80.5451C48.4696 81.1343 48.418 82.1333 49.0113 82.7994C49.6045 83.4654 50.6105 83.5166 51.2812 82.9275L58.0651 76.9331C60.9282 74.397 65.5196 74.2177 68.5891 76.5232L72.1487 79.1874C73.748 80.3914 75.7083 81.0318 77.6945 81.0318H84.3494C86.0776 81.0318 87.4963 82.4407 87.4963 84.1571C87.4963 85.8734 86.0776 87.2823 84.3494 87.2823H75.7083C74.8313 87.2823 74.1091 87.9996 74.1091 88.8706C74.1091 89.7416 74.8313 90.4589 75.7083 90.4589H84.3494C86.2066 90.4589 87.8574 89.6647 89.0182 88.4095C90.669 88.1533 97.6077 86.8469 104.469 83.0299L105.784 82.4407C106.894 81.954 108.132 81.9028 109.241 82.3126L111.459 83.0812C111.691 83.158 111.743 83.3373 111.769 83.4398C111.769 83.5423 111.769 83.7216 111.614 83.8753L107.1 87.8972C105.784 89.0755 104.34 90.1514 102.844 91.0737C93.5838 96.8119 82.9049 99.5529 72.0198 99.0149L64.462 98.6563C63.6108 98.5794 62.8112 99.2967 62.7854 100.168C62.7338 101.039 63.4303 101.807 64.3073 101.833L71.865 102.191C72.7936 102.243 73.7222 102.268 74.6508 102.268C85.2264 102.268 95.5183 99.3479 104.546 93.7634C106.197 92.7388 107.796 91.5604 109.241 90.2539L113.755 86.2321C114.735 85.3611 115.174 84.0546 114.916 82.7738V82.8762Z" fill="#00A0DF"/>
<path d="M106.223 55.543L85.5104 35.2799C83.9885 33.7685 82.0024 33.0256 80.0162 33.0256C78.03 33.0256 75.9665 33.7941 74.4446 35.3568L54.8152 55.1587C53.0096 56.9775 52.5969 59.8722 54.1187 61.9216C54.9957 63.1256 56.2597 63.7916 57.5752 63.971V68.915C57.5752 69.8116 58.2974 70.5033 59.1744 70.5033C60.0514 70.5033 60.7737 69.786 60.7737 68.915V63.3562C61.1864 63.1256 61.5733 62.8694 61.9344 62.5108L79.5519 44.7582C79.6809 44.6045 79.8872 44.5533 80.0678 44.5533C80.2483 44.5533 80.4289 44.6301 80.5837 44.7582L99.2329 62.9975C99.5425 63.3049 99.8778 63.5355 100.213 63.7404V76.2159C100.213 77.1125 100.935 77.8041 101.812 77.8041C102.689 77.8041 103.412 77.0869 103.412 76.2159V64.3808C104.779 64.2271 106.12 63.5355 107.023 62.2802C108.493 60.2053 108.055 57.3105 106.223 55.5174V55.543ZM104.392 60.4358C104.082 60.8457 103.721 61.0506 103.412 61.1531C103.179 61.2299 102.973 61.2556 102.818 61.2556C102.302 61.2556 101.838 61.0506 101.477 60.7176L100.213 59.4624L82.8278 42.4527C82.0797 41.7354 81.0996 41.3255 80.0678 41.3255C79.036 41.3255 78.0042 41.761 77.2562 42.5039L60.7995 59.1037L59.6645 60.2565C59.3034 60.6151 58.8133 60.8201 58.2974 60.8201C58.1169 60.8201 57.8589 60.7945 57.5752 60.692C57.2914 60.5895 56.9819 60.3846 56.724 60.0259C56.2081 59.3087 56.3628 58.1559 57.1109 57.3874L76.7403 37.5855C77.6173 36.7145 78.7781 36.2278 80.0162 36.2278C81.2543 36.2278 82.3893 36.6889 83.2405 37.5342L103.953 57.7973C104.727 58.5402 104.908 59.6929 104.392 60.4102V60.4358Z" fill="#00A0DF"/>
</svg>
