<svg width="148" height="148" viewBox="0 0 148 148" fill="none" xmlns="http://www.w3.org/2000/svg">
<path d="M82.8406 53.5768L71.9756 42.7118C71.4631 42.1993 70.6431 42.1993 70.1562 42.7118L41.0206 71.8474C40.4569 72.4112 39.7394 72.7187 38.945 72.7187C38.1506 72.7187 37.4331 72.4112 36.8694 71.8474C36.3056 71.2837 35.9981 70.5662 35.9981 69.7718C35.9981 68.9774 36.3056 68.2599 36.8694 67.6962L66.3125 38.2274C69.0544 35.4856 73.4875 35.4856 76.2038 38.2274L89.0419 51.0656C89.6313 51.6549 90.605 51.6549 91.22 51.0656C91.835 50.4762 91.8094 49.5024 91.22 48.8874L78.2025 35.8699C74.3844 32.0518 68.1831 32.0518 64.3394 35.8699L34.9475 65.2618C32.6925 67.5168 32.2825 71.2581 34.3581 73.6668C35.5625 75.0762 37.2537 75.7681 38.945 75.7681C39.4831 75.7681 40.0213 75.6656 40.5594 75.5118V104.032H34.5375C33.6919 104.032 33 104.724 33 105.57C33 106.416 33.6919 107.107 34.5375 107.107H77.5362C78.3819 107.107 79.0737 106.416 79.0737 105.57C79.0737 104.724 78.3819 104.032 77.5362 104.032H74.3331V82.2768C74.3331 80.1499 72.6162 78.4331 70.4894 78.4331H56.7288C54.6019 78.4331 52.885 80.1499 52.885 82.2768V104.032H43.6087V73.5643L71.0788 46.1456L80.6881 55.7549C81.2775 56.3443 82.2512 56.3443 82.8662 55.7549C83.4812 55.1656 83.4556 54.1918 82.8662 53.5768H82.8406ZM55.9856 82.8149C55.9856 82.0974 56.5494 81.5337 57.2669 81.5337H70.0025C70.72 81.5337 71.2837 82.0974 71.2837 82.8149V104.058H55.9856V82.8149Z" fill="black"/>
<path d="M58.4201 95.2175C57.5744 95.2175 56.8826 95.9094 56.8826 96.755C56.8826 97.6007 57.5744 98.2925 58.4201 98.2925C59.2657 98.2925 59.9576 97.6007 59.9576 96.755C59.9576 95.9094 59.2657 95.2175 58.4201 95.2175Z" fill="black"/>
<path d="M87.1968 68.5419C87.1968 75.1019 92.5012 80.4062 99.0612 80.4062C105.621 80.4062 110.926 75.1019 110.926 68.5419C110.926 61.9819 105.621 56.6775 99.0612 56.6775C92.5012 56.6775 87.1968 61.9819 87.1968 68.5419ZM99.0612 59.7525C103.904 59.7525 107.851 63.6987 107.851 68.5419C107.851 73.385 103.904 77.3312 99.0612 77.3312C94.218 77.3312 90.2718 73.385 90.2718 68.5419C90.2718 63.6987 94.218 59.7525 99.0612 59.7525Z" fill="#AEAEAE"/>
<path d="M107.928 83.6094H90.1951C86.2744 83.6094 83.1226 86.7869 83.1226 90.6819V113.462C83.1226 114.308 83.8144 115 84.6601 115C85.5057 115 86.1976 114.308 86.1976 113.462V90.5281C86.1976 88.4013 87.9144 86.6844 90.0413 86.6844H108.081C110.208 86.6844 111.925 88.4013 111.925 90.5281V113.462C111.925 114.308 112.617 115 113.463 115C114.308 115 115 114.308 115 113.462V90.6819C115 86.7613 111.823 83.6094 107.928 83.6094Z" fill="#AEAEAE"/>
</svg>
