<svg width="148" height="148" viewBox="0 0 148 148" fill="none" xmlns="http://www.w3.org/2000/svg">
<path d="M62 70C62 76.635 67.365 82 74 82C80.635 82 86 76.635 86 70C86 63.365 80.635 58 74 58C67.365 58 62 63.365 62 70ZM74 61.1102C78.8985 61.1102 82.8898 65.1015 82.8898 70C82.8898 74.8985 78.8985 78.8898 74 78.8898C69.1015 78.8898 65.1102 74.8985 65.1102 70C65.1102 65.1015 69.1015 61.1102 74 61.1102Z" fill="#9A4ACB"/>
<path d="M83.4566 84.9319H64.5434C60.3617 84.9319 57 88.1711 57 92.1417V115.365C57 116.227 57.7379 116.932 58.6399 116.932C59.5418 116.932 60.2797 116.227 60.2797 115.365V91.9849C60.2797 89.8168 62.1109 88.0666 64.3794 88.0666H83.6206C85.8891 88.0666 87.7203 89.8168 87.7203 91.9849V115.365C87.7203 116.227 88.4582 116.932 89.3601 116.932C90.2621 116.932 91 116.227 91 115.365V92.1417C91 88.1449 87.6109 84.9319 83.4566 84.9319Z" fill="#9A4ACB"/>
<path d="M54.7972 115.107L53.7257 100.107C53.6637 99.2386 54.3514 98.5 55.2219 98.5H92.7781C93.6486 98.5 94.3363 99.2386 94.2743 100.107L93.2028 115.107C93.1468 115.892 92.4936 116.5 91.7066 116.5H56.2934C55.5064 116.5 54.8532 115.892 54.7972 115.107Z" fill="white" stroke="#9A4ACB" stroke-width="3"/>
<circle cx="74" cy="108" r="5" fill="#D0CDE8"/>
<path d="M116.35 114.699H106.588V70.6852L106.972 70.9878C108.21 71.9506 109.695 72.4183 111.18 72.4183C113.518 72.4183 115.827 71.2354 117.147 68.9522C118.88 65.9537 117.835 62.075 115.085 59.9294L78.51 31.513C77.2175 30.4952 75.65 30 74.0825 30C72.515 30 70.975 30.4952 69.6825 31.513L32.9425 59.8468C30.1925 61.965 29.12 65.8437 30.8525 68.8696C32.145 71.1529 34.4825 72.3632 36.82 72.3632C38.2775 72.3632 39.735 71.8956 41 70.9328L41.3575 70.6577V114.754H31.65C30.7425 114.754 30 115.497 30 116.404C30 117.312 30.7425 118.055 31.65 118.055H116.35C117.257 118.055 118 117.312 118 116.404C118 115.497 117.257 114.754 116.35 114.754V114.699ZM38.965 68.292C38.3325 68.7871 37.59 69.0347 36.82 69.0347C35.5825 69.0347 34.455 68.402 33.795 67.3567C32.86 65.8712 33.3825 63.6705 34.95 62.4601L71.69 34.1263C72.3775 33.6036 73.2025 33.301 74.0825 33.301C74.9625 33.301 75.7875 33.5761 76.475 34.1263L113.022 62.5702C114.59 63.7806 115.113 65.9812 114.178 67.4667C113.518 68.512 112.39 69.1447 111.153 69.1447C110.355 69.1447 109.612 68.8972 108.98 68.402L75.3475 42.2138C74.605 41.6361 73.5325 41.6361 72.7625 42.2138L38.965 68.292ZM103.287 114.699H44.6575V68.0719L73.725 45.6524C73.9175 45.4873 74.1925 45.4873 74.385 45.6524L103.26 68.1269V114.699H103.287Z" fill="black"/>
<path d="M94.5699 40.4258C95.4774 40.4258 96.2199 39.683 96.2199 38.7752V33.5761C96.2199 33.4111 96.3299 33.301 96.4949 33.301H103.012C103.177 33.301 103.287 33.4111 103.287 33.5761V46.3126C103.287 47.2204 104.03 47.9631 104.937 47.9631C105.845 47.9631 106.587 47.2204 106.587 46.3126V31.3754C106.587 30.6052 105.982 30 105.212 30H94.2949C93.5249 30 92.9199 30.6052 92.9199 31.3754V38.7752C92.9199 39.683 93.6624 40.4258 94.5699 40.4258Z" fill="black"/>
</svg>
