<svg width="128" height="128" viewBox="0 0 128 128" fill="none" xmlns="http://www.w3.org/2000/svg">
<path d="M22.1659 71.6161C24.359 68.0033 28.9394 66.7614 32.6038 68.7372L52.5357 79.5472C50.4814 75.7369 51.5918 71.0516 55.1451 68.6243C61.1413 64.5317 72.6896 57.2215 82.9054 54.2862C86.6808 53.1854 90.6505 53.4395 94.3148 54.8507C94.3148 53.2701 95.564 52 97.0909 52H106.224C107.751 52 109 53.2701 109 54.8225V91.7402C109 93.2925 107.751 94.5627 106.224 94.5627H97.1186C95.5918 94.5627 94.3426 93.2925 94.3426 91.7402V87.5912L91.3167 85.3897C90.5394 84.8252 89.5123 84.7405 88.6517 85.1639L66.8599 95.9174C63.9451 97.3569 60.8082 98.0625 57.6435 98.0625C54.118 98.0625 50.6202 97.1875 47.4555 95.4094L25.0808 82.8777C23.1653 81.8051 21.8051 80.027 21.2499 77.8819C20.6946 75.7369 21.0278 73.5071 22.1659 71.6161ZM98.5066 89.7645C98.5066 90.0749 98.7565 90.329 99.0618 90.329H104.281C104.586 90.329 104.836 90.0749 104.836 89.7645V56.7982C104.836 56.4877 104.586 56.2337 104.281 56.2337H99.0618C98.7565 56.2337 98.5066 56.4877 98.5066 56.7982V89.7645ZM25.2751 76.8094C25.5249 77.8255 26.1912 78.6722 27.0795 79.1803L49.4543 91.712C54.2568 94.4215 60.0864 94.5627 65.0278 92.1071L86.8196 81.3536C89.0681 80.2528 91.7054 80.4786 93.7319 81.9463L94.3148 82.3696V59.4795C91.0669 57.8425 87.3748 57.3909 84.0435 58.3505C74.383 61.1448 63.2511 68.2009 57.477 72.1523C55.7281 73.3378 55.1729 75.6522 56.2 77.5432C57.2549 79.4907 59.67 80.2246 61.6133 79.1803L68.8032 75.5111L72.2177 73.5636C73.217 72.9991 74.494 73.3378 75.0492 74.3821C75.6044 75.4264 75.2713 76.6965 74.2442 77.261L61.0303 84.8252C58.6984 86.1517 55.9224 86.18 53.5628 84.9098L30.6606 72.491C28.9117 71.5596 26.7464 72.1523 25.7193 73.8458C25.164 74.749 25.0253 75.7933 25.2751 76.8094Z" fill="black"/>
<circle cx="36" cy="26" r="21" fill="#00A0DF"/>
<path fill-rule="evenodd" clip-rule="evenodd" d="M42.4644 32.4644C43.1784 31.7504 43.1784 30.5927 42.4644 29.8786L38.5858 26.0001L42.4645 22.1214C43.1785 21.4074 43.1785 20.2497 42.4645 19.5356C41.7504 18.8216 40.5927 18.8216 39.8787 19.5356L36 23.4143L32.1213 19.5355C31.4073 18.8215 30.2496 18.8215 29.5355 19.5355C28.8215 20.2496 28.8215 21.4073 29.5355 22.1213L33.4143 26.0001L29.5356 29.8787C28.8216 30.5928 28.8216 31.7505 29.5356 32.4645C30.2496 33.1785 31.4073 33.1785 32.1214 32.4645L36 28.5858L39.8786 32.4644C40.5927 33.1785 41.7503 33.1785 42.4644 32.4644Z" fill="white"/>
</svg>
