<svg width="43" height="40" viewBox="0 0 43 40" fill="none" xmlns="http://www.w3.org/2000/svg">
<g clip-path="url(#clip0_22_151)">
<path d="M15.8717 19.0578H18.2116L17.0403 15.9133L15.8717 19.0578Z" fill="url(#paint0_linear_22_151)"/>
<path d="M21.4987 0C9.62662 0 0 7.68801 0 17.1732C0 22.7013 3.27095 27.6185 8.35009 30.7575C8.74412 31.1638 9.08956 31.8265 8.69014 32.792C8.69014 32.792 7.10324 36.951 4.03201 39.7246C4.03201 39.7246 3.71085 40.2209 5.27885 39.8773C5.27885 39.8773 11.057 38.4455 17.2696 34.4774C17.2696 34.4774 17.5152 34.3056 18.2709 34.3056C18.2709 34.3056 18.7891 34.2892 19.4799 34.2674C20.1466 34.3165 20.8213 34.3438 21.504 34.3438C33.3788 34.3438 43.0027 26.6558 43.0027 17.1705C43.0027 7.68528 33.3734 0 21.4987 0ZM10.4633 22.2868C10.4633 22.9331 9.94508 23.4595 9.30277 23.4595C8.66045 23.4595 8.14228 22.9358 8.14228 22.2868V14.8088H6.10739C5.46777 14.8088 4.9469 14.2851 4.9469 13.6361C4.9469 12.987 5.46507 12.4634 6.10739 12.4634H12.4928C13.1324 12.4634 13.6532 12.987 13.6532 13.6361C13.6532 14.2851 13.1351 14.8088 12.4928 14.8088H10.4606V22.2868H10.4633ZM21.0857 23.4458C20.9508 23.4976 20.8132 23.5222 20.6782 23.5222C20.2086 23.5222 19.7687 23.2331 19.5933 22.764L19.0859 21.4004H14.9999L14.4926 22.764C14.3171 23.2331 13.8772 23.5222 13.4076 23.5222C13.2727 23.5222 13.1351 23.4976 13.0001 23.4458C12.401 23.2167 12.0987 22.5431 12.3227 21.9377L15.5397 13.2979C15.5775 13.197 15.6315 13.1097 15.6908 13.0252C15.9013 12.627 16.4249 12.3434 17.0429 12.3434C17.661 12.3434 18.1845 12.627 18.395 13.0224C18.4544 13.1042 18.5084 13.1942 18.5462 13.2952L21.7631 21.935C21.9898 22.5404 21.6849 23.2167 21.0857 23.4431V23.4458ZM27.9893 23.3558H24.0841C23.6469 23.3558 23.2718 23.1104 23.0747 22.7504C22.9479 22.5622 22.875 22.3386 22.875 22.0931V13.647C22.875 13.0006 23.3932 12.4743 24.0355 12.4743C24.6778 12.4743 25.196 12.9979 25.196 13.647V21.0104H27.992C28.6316 21.0104 29.1524 21.5341 29.1524 22.1831C29.1524 22.8322 28.6343 23.3531 27.992 23.3531L27.9893 23.3558ZM37.5943 23.1131C37.3838 23.2767 37.1355 23.3558 36.8899 23.3558C36.5418 23.3558 36.1963 23.1977 35.9696 22.8977L33.0333 19.0305L32.3775 19.6932C32.3775 19.6932 32.3505 19.715 32.337 19.7259V22.0959C32.337 22.7422 31.8189 23.2686 31.1765 23.2686C30.5342 23.2686 30.0188 22.7449 30.0188 22.0959V13.6497C30.0188 13.0033 30.5369 12.477 31.1765 12.477C31.8162 12.477 32.337 13.0006 32.337 13.6497V16.4205L35.7618 12.9597C36.2152 12.5015 36.9493 12.5015 37.4 12.9597C37.8534 13.4179 37.8534 14.1597 37.4 14.6151L34.6877 17.356L37.8102 21.4686C38.2015 21.9813 38.1044 22.7177 37.597 23.1104L37.5943 23.1131Z" fill="url(#paint1_linear_22_151)"/>
</g>
<defs>
<linearGradient id="paint0_linear_22_151" x1="17.0403" y1="19.0578" x2="17.0403" y2="15.9133" gradientUnits="userSpaceOnUse">
<stop stop-color="#2E1B1F"/>
<stop offset="1" stop-color="#634F4F"/>
</linearGradient>
<linearGradient id="paint1_linear_22_151" x1="21.4986" y1="40" x2="21.4986" y2="0" gradientUnits="userSpaceOnUse">
<stop stop-color="#2E1B1F"/>
<stop offset="1" stop-color="#634F4F"/>
</linearGradient>
<clipPath id="clip0_22_151">
<rect width="43" height="40" fill="white"/>
</clipPath>
</defs>
</svg>
